<?xml version="1.0" standalone="no"?><!DOCTYPE svg PUBLIC "-//W3C//DTD SVG 1.1//EN" "http://www.w3.org/Graphics/SVG/1.1/DTD/svg11.dtd"><svg t="1747719435889" class="icon" viewBox="0 0 1235 1024" version="1.1" xmlns="http://www.w3.org/2000/svg" p-id="2580" xmlns:xlink="http://www.w3.org/1999/xlink" width="241.2109375" height="200"><path d="M430.617068 592.299689a211.140016 211.140016 0 1 1-76.359953-415.318301c114.710321-21.079923 224.783546 54.768854 245.851298 169.454832S545.376072 571.219766 430.617068 592.299689z" fill="#FFFFFF" p-id="2581"></path><path d="M392.242358 626.365916a241.628011 241.628011 0 0 1-237.48992-198.019832c-24.049612-131.04361 62.972011-257.304074 193.991279-281.390199a241.676694 241.676694 0 1 1 43.498641 479.410031z m0.42598-422.328715a181.06583 181.06583 0 0 0-32.861312 3.030544c-97.902368 17.952013-162.870399 112.324833-144.918387 210.251543A180.591166 180.591166 0 1 0 392.668338 204.000689z" fill="#434B56" p-id="2582"></path><path d="M411.03416 485.731671a102.770711 102.770711 0 1 1 82.542748-119.712543 102.75854 102.75854 0 0 1-82.542748 119.712543z" fill="#ACD263" p-id="2583"></path><path d="M392.327554 518.008782a133.331731 133.331731 0 0 1-23.952245-264.460537 135.339922 135.339922 0 0 1 24.232175-2.202925 133.31956 133.31956 0 0 1 23.988758 264.448366 137.104697 137.104697 0 0 1-24.268688 2.215096z m0.267759-205.602276a75.106354 75.106354 0 0 0-13.181038 1.217086 72.173178 72.173178 0 1 0 13.181038-1.217086z" fill="#434B56" p-id="2584"></path><path d="M354.792633 463.738934c-27.883432 5.148272-56.290211-21.968396-63.373649-60.525669s9.736685-73.998807 37.729655-79.110566 56.265869 21.992737 63.373649 60.525669-9.821881 74.071832-37.729655 79.110566z" fill="#F9BA8F" p-id="2585"></path><path d="M347.92827 494.908497c-40.979273 0-77.382305-36.24481-86.546959-86.206176-10.284374-55.985939 17.039199-106.361114 62.205246-114.673808s88.847251 30.122869 98.936892 85.037773c5.622936 30.621875 0 61.036845-15.444817 83.394708-11.598826 16.820123-28.224216 27.907774-46.821284 31.303442a64.018704 64.018704 0 0 1-12.329078 1.144061z m-12.024806-140.877662c-9.420243 1.606553-18.828315 19.728958-14.446806 43.644691 4.344996 23.623632 19.144757 37.729655 27.786065 36.037905 3.286131-0.608543 5.915036-3.541719 7.54593-5.915036 4.868343-6.937388 8.787358-20.495722 5.659449-37.644459-4.284141-23.270677-18.426676-36.123102-26.544638-36.123101zM1205.012144 877.462853a30.950488 30.950488 0 0 1-8.848213-1.302281L21.737149 522.183386a30.551284 30.551284 0 0 1 17.6234-58.505306l1174.487637 353.989356a30.548849 30.548849 0 0 1-8.787359 59.795417z" fill="#434B56" p-id="2586"></path><path d="M1110.383736 1023.999963a30.524508 30.524508 0 0 1-24.816376-12.682032L390.806197 48.432803a30.551284 30.551284 0 0 1 49.547556-35.757976l694.761163 962.897299a30.573191 30.573191 0 0 1-24.73118 48.427837z" fill="#434B56" p-id="2587"></path></svg>