<?xml version="1.0" standalone="no"?><!DOCTYPE svg PUBLIC "-//W3C//DTD SVG 1.1//EN" "http://www.w3.org/Graphics/SVG/1.1/DTD/svg11.dtd"><svg t="1747739754921" class="icon" viewBox="0 0 1198 1024" version="1.1" xmlns="http://www.w3.org/2000/svg" p-id="6228" xmlns:xlink="http://www.w3.org/1999/xlink" width="233.984375" height="200"><path d="M530.944 949.76c-5.632 0-11.776-1.024-17.408-3.072-5.632 2.048-11.264 3.072-17.408 3.072-6.144 0-12.8-1.024-18.944-3.072-3.584 0.512-7.68 1.024-11.264 1.024-5.12 0-10.24-0.512-14.848-2.048-11.776 3.072-24.576 3.072-36.352-1.024-10.752 2.048-21.504 1.536-32.256-2.048-10.24 2.048-20.992 1.536-30.72-2.048-10.24 1.536-20.992 0.512-30.72-3.072-3.584 0.512-7.168 1.024-10.752 1.024-10.24 0-19.968-2.56-29.184-7.168h-1.536c-9.728 0-18.944-2.048-27.648-6.144h-3.072c-10.752 0-21.504-3.072-31.232-8.192-10.752 0-21.504-3.072-30.72-8.192-11.776-0.512-23.04-4.608-32.768-10.752-12.8-1.536-25.088-7.68-34.304-16.384-13.312-4.608-24.576-13.312-32.768-25.088-6.656-4.096-12.8-9.728-17.408-15.872-5.12-6.656-9.216-13.824-11.776-21.504-14.336-13.312-22.528-32.256-22.528-51.712-5.632-10.752-8.192-23.04-8.192-34.816v-6.144c-3.584-8.704-5.12-17.92-5.12-27.648 0-4.608 0.512-9.728 1.536-14.336-4.096-12.8-5.12-26.624-2.56-39.936-2.56-10.24-3.072-20.992-1.024-31.232-3.584-13.824-3.072-28.672 1.536-41.984-1.024-4.608-1.536-9.728-1.536-14.336 0-10.752 2.048-20.992 6.144-30.72-11.776-17.408-18.432-37.888-19.456-60.928-4.608-101.888 104.448-227.328 174.08-282.624 45.056-35.84 98.304-63.488 158.72-81.92 56.832-17.408 116.736-26.624 178.688-26.624 84.992 0 167.936 16.896 240.128 49.152 78.336 34.816 141.824 87.04 182.784 150.528 25.088 38.4 47.616 92.672 61.952 147.968 10.752 40.96 20.992 96.768 9.728 131.584-1.536 4.608-3.584 9.216-6.144 13.824 0 1.024-0.512 2.56-0.512 3.584 4.608 13.824 5.12 28.16 1.536 41.984 1.536 10.24 1.536 20.992-1.024 31.232 2.56 13.312 2.048 27.136-2.56 39.936 1.024 4.608 1.536 9.728 1.536 14.336 0 9.216-1.536 18.944-5.12 27.648v6.144c0 12.288-3.072 24.064-8.192 34.816-0.512 19.456-8.704 38.4-22.528 51.712-2.56 7.68-6.656 14.848-11.776 21.504-5.12 6.144-10.752 11.776-17.408 15.872-8.192 11.776-19.456 19.968-32.768 25.088-9.728 8.704-21.504 14.336-34.304 16.384-9.728 6.656-20.992 10.24-32.768 10.752-9.216 5.632-19.968 8.192-30.72 8.192-9.728 5.632-20.48 8.192-31.232 8.192h-3.072c-8.704 4.096-17.92 6.144-27.648 6.144h-1.536c-9.216 4.608-18.944 7.168-29.184 7.168-3.584 0-7.168-0.512-10.752-1.024-9.728 3.584-20.48 4.608-30.72 3.072-6.144 2.048-12.8 3.072-18.944 3.072-4.096 0-7.68-0.512-11.776-1.024-10.24 3.584-21.504 4.096-32.256 2.048-11.776 4.096-24.064 4.096-36.352 1.024-5.12 1.024-9.728 2.048-14.848 2.048-4.096 0-7.68-0.512-11.264-1.024-6.656 2.56-13.312 3.584-19.456 3.584z" fill="#25467A" p-id="6229"></path><path d="M962.56 626.688c0-4.608-1.024-9.216-3.072-13.312-0.512-1.024-0.512-2.048 0-3.072 2.56-4.608 4.096-9.728 4.096-14.848 0-6.656-2.56-13.312-6.656-18.432-1.024-1.024-1.024-2.56-0.512-3.584 3.072-4.608 5.12-10.24 4.608-15.872 0-11.264-6.144-20.992-14.848-23.552-1.024-0.512-2.048-1.024-2.048-2.048-11.264-52.224-33.28-96.768-68.608-119.808-114.688-74.752-241.152-98.304-362.496-93.184-121.344-4.608-247.808 18.432-362.496 93.184C115.2 435.2 93.184 479.744 81.92 531.968c0 1.024-1.024 2.048-2.048 2.048-8.192 2.56-14.848 12.288-14.848 23.552 0 5.632 1.536 11.264 4.608 15.872 1.024 1.024 0.512 2.56-0.512 3.584-4.608 5.12-7.168 11.776-6.656 18.432 0 5.12 1.536 10.752 4.096 14.848 0.512 1.024 0.512 2.048 0 3.072-2.048 4.096-3.072 8.704-3.072 13.312 0 5.632 1.536 11.264 4.608 15.872 0.512 1.024 0.512 2.048 0 3.072-2.56 4.608-4.096 9.728-4.096 14.848 0 7.168 2.56 13.824 7.168 18.944 1.024 1.024 1.024 2.56 0.512 3.584-3.072 4.608-5.12 10.24-4.608 16.384 0 6.656 2.048 13.312 6.656 18.432 1.024 1.024 1.024 2.048 0.512 3.072-1.536 3.584-2.56 7.68-2.56 11.776 0 8.704 3.584 15.872 8.704 20.48 1.024 1.024 1.536 2.048 1.024 3.584-1.024 3.072-1.536 6.144-1.536 9.216 0 12.288 7.168 22.528 16.384 24.064 1.536 0.512 2.56 1.536 2.56 3.072v2.048c0 13.312 8.704 24.064 18.944 24.064h1.024c2.048 10.752 9.728 18.944 18.944 18.944 1.024 0 2.048 0 3.072-0.512 1.536-0.512 3.072 0.512 3.584 2.048 3.072 7.168 9.728 12.288 16.384 12.288 2.56 0 4.608-0.512 7.168-1.536 1.536-0.512 3.072 0 4.096 1.536 3.584 6.656 9.216 10.752 15.872 10.752 3.072 0 6.144-1.024 8.704-2.56 1.536-1.024 3.072-0.512 4.096 1.024 3.584 6.144 9.216 9.728 15.36 9.728 3.584 0 7.168-1.536 10.24-3.584 1.536-1.024 3.072-1.024 4.096 0.512 0 0 0 0.512 0.512 0.512 3.584 6.656 9.216 11.264 15.872 11.264 4.096 0 7.68-1.536 10.752-4.096 1.024-1.024 3.072-1.024 4.096 0.512l0.512 0.512c3.584 6.144 9.216 9.728 15.36 9.728 4.096 0 7.68-1.536 10.24-4.096 1.536-1.024 3.072-1.024 4.096 0.512l0.512 0.512c3.584 6.144 9.216 10.24 15.872 10.24 5.12 0 9.728-2.56 12.8-6.144 1.024-1.024 3.072-1.536 4.096-0.512l0.512 0.512c3.584 5.12 8.704 8.704 14.336 8.704 4.096 0 8.192-1.536 11.264-4.608 1.024-1.024 3.072-1.024 4.608 0 5.632 7.168 15.36 8.704 23.04 3.584l3.072-3.072c1.024-1.024 3.072-1.536 4.096-0.512l0.512 0.512c3.584 5.12 8.704 8.192 14.336 8.192 5.12 0 9.728-2.56 12.8-6.144 1.024-1.024 3.072-1.536 4.096-0.512l0.512 0.512c3.584 5.12 8.704 8.192 14.336 8.192 5.12 0 10.24-2.56 13.312-7.168 1.024-1.536 3.072-1.536 4.096-0.512l0.512 0.512c3.072 4.096 8.192 6.656 13.312 6.656 4.608 0 9.216-2.048 12.288-5.632 1.024-1.024 3.072-1.024 4.096 0l0.512 0.512c3.584 4.608 8.192 7.168 13.312 7.168 3.584 0 10.24-4.096 14.336-6.656 2.048-1.024 4.096-1.024 6.144 0 4.096 2.56 10.752 6.656 14.336 6.656 5.12 0 10.24-2.56 13.824-7.168 1.024-1.536 3.072-1.536 4.096-0.512 0 0 0.512 0 0.512 0.512 3.072 3.584 7.68 5.632 12.288 5.632 5.12 0 10.24-2.56 13.312-6.656 1.024-1.024 3.072-1.536 4.096-0.512l0.512 0.512c3.584 4.608 8.192 7.168 13.312 7.168 5.632 0 10.752-3.072 14.336-8.192 1.024-1.536 3.072-1.536 4.096-0.512l0.512 0.512c3.072 4.096 7.68 6.144 12.8 6.144 5.632 0 10.752-3.072 14.336-8.192 1.024-1.536 3.072-1.536 4.096-0.512l0.512 0.512c5.632 7.168 15.872 8.192 23.04 3.072l3.072-3.072c1.024-1.536 3.072-1.536 4.096-0.512 3.072 3.072 7.168 4.608 11.264 4.608 5.632 0 11.264-3.072 14.336-8.704 1.024-1.536 3.072-1.536 4.096-1.024l0.512 0.512c3.072 3.584 7.68 6.144 12.8 6.144 6.656 0 12.288-4.096 15.872-10.24 1.024-1.536 2.56-2.048 4.096-1.024 0 0 0.512 0 0.512 0.512 3.072 2.56 6.656 4.096 10.24 4.096 6.144 0 11.776-4.096 15.36-9.728 1.024-1.536 2.56-2.048 4.096-1.024 0 0 0.512 0 0.512 0.512 3.072 2.56 6.656 4.096 10.752 4.096 6.656 0 12.8-4.608 15.872-11.264 1.024-1.536 2.56-2.048 4.096-1.024 0 0 0.512 0 0.512 0.512 3.072 2.56 6.656 3.584 10.24 3.584 6.144 0 11.776-4.096 15.36-9.728 1.024-1.536 2.56-2.048 4.096-1.024 2.56 1.536 5.632 2.56 8.704 2.56 6.656 0 12.288-4.096 15.872-10.752 0.512-1.536 2.56-2.048 4.096-1.536 2.048 1.024 4.608 1.536 7.168 1.536 7.168 0 13.312-5.12 16.384-12.288 0.512-1.536 2.048-2.048 3.584-2.048 1.024 0 2.048 0.512 3.072 0.512 9.216 0 16.896-8.192 18.432-18.944h1.024c10.752 0 18.944-10.752 18.944-24.064v-2.048c0-1.536 1.024-3.072 2.56-3.072 9.216-1.536 16.384-11.776 16.384-24.064 0-3.072-0.512-6.144-1.536-9.216-0.512-1.024 0-2.56 1.024-3.584 5.12-4.096 8.704-11.776 8.704-20.48 0-4.096-1.024-8.192-2.56-11.776-0.512-1.024-0.512-2.56 0.512-3.072 4.608-5.12 6.656-11.776 6.656-18.432 0-5.632-1.536-11.264-4.608-16.384-1.024-1.024-0.512-2.56 0.512-3.584 4.608-5.12 7.168-11.776 7.168-18.944 0-5.12-1.536-10.24-4.096-14.848-0.512-1.024-0.512-2.56 0-3.072 7.168-6.656 8.704-11.776 8.192-17.408z" fill="#FFFBF6" p-id="6230"></path><path d="M81.92 516.608c101.888 67.584 262.656 66.048 390.144 3.072 76.288-37.376 75.264-68.096 142.848-103.424 71.68-37.376 176.64 6.656 234.496 43.008 71.168 44.544 94.208 96.256 112.64 88.576 26.624-10.24-4.096-162.816-59.904-249.344-131.072-202.752-494.592-236.544-692.736-79.36C116.736 292.352-4.608 459.264 81.92 516.608z" fill="#FFAB91" p-id="6231"></path><path d="M968.192 542.208c-12.8 16.384-55.296-72.192-109.568-113.152-64-48.128-196.096-94.72-267.776-57.344-68.096 35.84-77.824 62.976-153.6 101.888-159.232 81.408-371.2 18.432-378.88-41.472C72.704 358.912 146.432 269.312 209.92 219.136c198.144-157.184 561.664-123.392 693.248 80.384 49.664 77.824 79.872 211.456 65.024 242.688z" fill="#FF8A65" p-id="6232"></path><path d="M391.168 821.76c-37.888 0-68.096-30.72-68.096-68.608 0-7.68 5.632-13.824 13.312-13.824s13.824 5.632 13.824 13.312v1.024c0.512 22.528 18.944 40.448 41.472 40.448 22.016-0.512 39.936-18.432 40.448-40.448 0-7.68 6.144-13.824 13.824-13.824 7.168 0 13.312 5.632 13.824 12.8v1.024c-0.512 37.376-31.232 68.096-68.608 68.096z m-178.176-177.664c0.512 22.528 18.944 40.448 41.472 40.448 22.016-0.512 39.936-18.432 40.448-40.448 0.512-22.528-17.92-41.472-40.448-41.472-22.528-0.512-41.472 17.92-41.472 40.448v1.024z m273.408 0c0.512 22.528 18.944 40.96 41.472 40.448 22.016-0.512 39.936-17.92 40.448-40.448 0.512-22.528-17.92-41.472-40.448-41.472-22.528-0.512-41.472 17.92-41.472 40.448v1.024z" fill="#25467A" p-id="6233"></path><path d="M199.68 712.704H144.896c-14.848 0-27.136 12.288-27.136 27.136s12.288 27.136 27.136 27.136H199.68c14.848 0 27.136-12.288 27.136-27.136s-12.288-27.136-27.136-27.136z m437.248 0h-54.784c-14.848 0-27.136 12.288-27.136 27.136s12.288 27.136 27.136 27.136h54.784c14.848 0 27.136-12.288 27.136-27.136s-11.776-27.136-27.136-27.136z" fill="#FFAB91" p-id="6234"></path><path d="M816.64 626.688c0 15.872 6.656 29.184 14.848 29.184 8.192 0 14.848-12.8 14.848-29.184 0-15.872-6.656-29.184-14.848-29.184-7.68 0-14.848 12.8-14.848 29.184zM863.744 684.032c0 15.872 6.656 29.184 14.848 29.184 8.192 0 14.848-12.8 14.848-29.184 0-15.872-6.656-29.184-14.848-29.184s-14.848 13.312-14.848 29.184zM769.024 567.296c0 15.872 6.656 29.184 14.848 29.184 8.192 0 14.848-12.8 14.848-29.184 0-15.872-6.656-29.184-14.848-29.184-8.192 0-14.848 13.312-14.848 29.184zM771.072 730.624c0 15.872 6.656 29.184 14.848 29.184 8.192 0 14.848-12.8 14.848-29.184 0-15.872-6.656-29.184-14.848-29.184-8.192 0-14.848 12.8-14.848 29.184zM872.96 585.728c0 15.872 6.656 29.184 14.848 29.184 8.192 0 14.848-12.8 14.848-29.184 0-15.872-6.656-29.184-14.848-29.184-8.192 0-14.848 12.8-14.848 29.184z" fill="#FFF3E0" p-id="6235"></path><path d="M446.976 467.968c-3.072 1.536-6.656 3.584-9.728 5.12-10.24 5.12-20.992 10.24-32.256 14.336-34.816-43.52-78.336-74.752-129.024-93.184-81.408-29.184-156.16-14.848-208.384 6.144 7.168-18.432 17.408-37.888 29.696-56.832 23.04-5.632 46.592-9.216 70.144-10.24 41.984-2.048 84.48 4.608 123.904 18.944 73.216 25.6 122.88 72.192 155.648 115.712z m112.64-78.336c-14.336 9.216-25.6 17.92-36.864 27.136-3.072-6.656-6.656-13.312-10.24-19.968-30.72-54.272-72.704-94.72-125.952-121.344-86.528-42.496-170.496-30.72-225.28-12.8 14.848-15.872 31.232-30.208 48.128-44.032 7.168-5.632 14.336-10.752 22.016-15.872 17.92-1.536 36.352-1.536 54.784-0.512 41.984 3.072 82.944 14.336 120.832 32.768 79.872 39.936 126.464 102.912 152.576 154.624z m162.304-23.04c-15.872-4.096-31.744-6.656-48.128-8.192-14.336-59.904-44.032-109.568-87.04-148.992-66.048-59.904-142.848-73.728-199.68-74.24 47.616-11.264 96.256-15.872 144.896-14.848 31.232 13.824 59.904 32.768 84.992 55.808 67.072 60.416 94.208 133.632 104.96 190.464z m147.968 72.192c-4.096-3.584-7.68-6.656-11.776-9.728-9.728-7.168-19.456-13.824-30.208-19.456 3.072-36.864-1.024-74.24-12.288-110.08-22.016-69.12-65.536-115.712-107.52-146.432 44.544 16.384 85.504 38.4 120.832 66.56 12.288 20.992 22.016 43.008 29.696 66.56 15.872 49.152 19.968 101.376 11.264 152.576z" fill="#FFC4B2" p-id="6236"></path></svg>