<?xml version="1.0" standalone="no"?><!DOCTYPE svg PUBLIC "-//W3C//DTD SVG 1.1//EN" "http://www.w3.org/Graphics/SVG/1.1/DTD/svg11.dtd"><svg t="1747739624645" class="icon" viewBox="0 0 1024 1024" version="1.1" xmlns="http://www.w3.org/2000/svg" p-id="4038" xmlns:xlink="http://www.w3.org/1999/xlink" width="200" height="200"><path d="M180.1 602.6a371.2 262.6 0 1 0 742.4 0 371.2 262.6 0 1 0-742.4 0Z" fill="#FFFFFF" p-id="4039"></path><path d="M551.3 350.5c199.2 0 360.7 112.9 360.7 252.1S750.5 854.7 551.3 854.7 190.6 741.8 190.6 602.6s161.5-252.1 360.7-252.1m0-21c-100.6 0-195.4 27.6-267.1 77.6-73.9 51.7-114.6 121.1-114.6 195.5s40.7 143.8 114.6 195.5c71.6 50.1 166.5 77.6 267.1 77.6 100.6 0 195.4-27.6 267.1-77.6C892.3 746.4 933 677 933 602.6s-40.7-143.8-114.6-195.5c-71.7-50-166.5-77.6-267.1-77.6z" fill="#42210B" p-id="4040"></path><path d="M334.4 572.1c-27.3 0-45.1-14.4-59.4-25.9-10.7-8.7-19.2-15.5-29-15.5-0.7 0-1.5 0-2.3 0.1-1.9 0.2-3.7 0.3-5.5 0.3-26 0-41.5-19.3-53.9-34.8-4.4-5.5-8.6-10.7-12.8-14.6-4.4-4.1-11-7-18.5-10.3-17.9-7.8-42.5-18.5-57.9-56.5-29-71.2 52.3-123.5 126.4-161 92.1-46.7 304-71.6 421.6-71.6 22.1 0 41.1 0.8 56.7 2.4 69.5 7.1 84.2 22.5 113.5 53.4 16.4 17.2 38.8 40.8 80.4 71.8 50.7 37.8 73.3 73.5 67.3 105.9-5.8 31.1-36.3 47.5-51.7 51.8-3.6 1-7.3 1.5-10.9 1.5-31.2 0-52.2-36.3-60-52.4-0.6-0.3-2.8-1.3-8.8-1.3-15.2 0-41.2 6.2-68.7 12.7-19.2 4.5-40.9 9.7-62.1 13.5-31.2 5.6-78.3 10.4-128.1 15.4-61.7 6.2-125.5 12.7-160.7 21.1-34.6 8.2-43.3 37.8-50.3 61.5-5.2 16.7-9.9 32.5-25.3 32.5z" fill="#ED1C24" p-id="4041"></path><path d="M643 192.8c21.4 0 40.3 0.8 55.7 2.3 104.4 10.6 74.9 38.3 188.6 123.2 113.7 84.9 46.8 131.4 19.1 139.2-2.8 0.8-5.5 1.1-8.1 1.1-23.9 0-42.3-29.4-50.7-46.8-2.4-4.9-8.7-6.9-18.1-6.9-27.5 0-80.7 17-132.7 26.3-69.7 12.6-225.2 21.3-289.4 36.6-64.3 15.3-52.4 93.7-73 93.7-43.2 0-58.6-41.4-88.4-41.4-1.1 0-2.2 0.1-3.3 0.2-1.5 0.2-3 0.2-4.4 0.2-28.9 0-42.4-30.5-59.6-46.6-18-16.8-53.6-13.1-73.9-63.1-20.3-50 17.7-95.1 121.5-147.7 88.3-44.8 293.4-70.3 416.7-70.3m0-21.1c-114.1 0-328.5 23.1-426.3 72.7C138.6 284 53.1 339.6 85.3 418.8c17.1 42 45 54.2 63.5 62.2 6.7 2.9 12.5 5.4 15.6 8.3 3.7 3.4 7.6 8.3 11.8 13.5 13.1 16.3 31.1 38.7 62.1 38.7 2.1 0 4.3-0.1 6.5-0.3 0.4 0 0.8-0.1 1.2-0.1 6.1 0 13.7 6.1 22.4 13.2 14.8 11.9 35 28.2 66 28.3 23.3 0 30.1-23.2 35.1-40.1 8.2-27.8 16.1-47.9 42.7-54.3 34.5-8.2 98-14.6 159.4-20.8 50.1-5.1 97.3-9.8 128.9-15.5 21.5-3.9 43.3-9 62.6-13.6 26.9-6.4 52.3-12.4 66.3-12.4h1.7c10.1 19.4 32.9 53.6 67.1 53.6 4.6 0 9.2-0.6 13.8-1.9 24.4-6.8 53.3-28.5 59.2-60 6.8-36.7-17.2-75.8-71.3-116.3-40.8-30.5-62-52.8-79-70.7-32.4-34.1-49.7-49.4-120-56.6-16.1-1.4-35.5-2.3-57.9-2.3z" fill="#42210B" p-id="4042"></path><path d="M371.9 202.6s336.9 88.1 435.5 265.2c104.5 187.8 60.1 327.5-61.7 370.3 0 0 218.8 16.6 192.6-273.1-26.9-297-396.2-433.3-566.4-362.4z" fill="#939650" p-id="4043"></path><path d="M752.6 848.8c-4.4 0-7.1-0.2-7.7-0.2l-49.9-3.8 47.2-16.6c48.8-17.2 83.8-50.3 101-95.8 26-68.5 10-160.6-45-259.4-95.3-171.2-425.7-259.3-429-260.2l-30.1-7.9 28.8-12c95.8-39.9 248.3-16.1 371 57.9 123.8 74.7 198.4 186 209.9 313.3 9.3 102.9-10.5 180-59 229.2-50.2 50.9-115 55.5-137.2 55.5zM407.7 202.1c88.5 27.4 326.7 112.9 408.9 260.7 58.1 104.3 74.5 202.7 46.3 277.1-12.6 33.1-33.3 60.4-61.1 80.8 23.3-6.5 50.2-18.9 73.1-42.3 43.8-44.6 61.6-116.1 52.9-212.4C913.1 403.4 796.3 310 728 268.7c-104.3-62.9-230.3-88.2-320.3-66.6z" fill="#42210B" p-id="4044"></path></svg>