<?xml version="1.0" standalone="no"?><!DOCTYPE svg PUBLIC "-//W3C//DTD SVG 1.1//EN" "http://www.w3.org/Graphics/SVG/1.1/DTD/svg11.dtd"><svg t="1747739620408" class="icon" viewBox="0 0 1024 1024" version="1.1" xmlns="http://www.w3.org/2000/svg" p-id="3861" xmlns:xlink="http://www.w3.org/1999/xlink" width="200" height="200"><path d="M680.8 838.7c-2.9 0-5.8-0.2-8.7-0.6L170.4 766c-43.4-6.2-78-34.6-92.7-75.9C63 648.8 72 605 101.6 572.8l334.5-363.1c11.4-12.4 26.8-19.2 43.5-19.2 25 0 46.9 15.1 55.7 38.4L736 758.3c7 18.5 4.6 38.5-6.6 54.7-11.1 16-29.3 25.7-48.6 25.7z" fill="#939650" p-id="3862"></path><path d="M479.7 197.5c20.6 0 40.8 12 49 33.8l200.7 529.4c13.2 34.8-13 70.8-48.6 70.8-2.5 0-5.1-0.2-7.7-0.6l-501.7-72.1c-86.6-12.5-123.8-116.9-64.5-181.3l334.5-363.1c10.5-11.5 24.5-16.9 38.3-16.9m0-14.2c-18.7 0-36 7.6-48.8 21.5L96.4 567.9c-31.5 34.2-41 80.8-25.4 124.5 15.6 43.8 52.4 73.9 98.4 80.5L671.1 845c3.2 0.5 6.5 0.7 9.7 0.7 21.7 0 42.1-10.8 54.5-28.8 12.6-18.2 15.3-40.6 7.4-61.3L542 226.2c-9.9-26.1-34.4-42.9-62.3-42.9z" fill="" p-id="3863"></path><path d="M703 846.6c-125.6 0-251.5-95.3-313.3-237.2-38.5-88.4-47.7-183.3-26-267.2 21.9-84.6 72.7-148.1 142.8-178.7 29.1-12.7 60.4-19.1 92.8-19.1 125.6 0 251.5 95.3 313.3 237.2 79.8 183 27.3 383.1-116.9 445.9-28.9 12.6-60.2 19.1-92.7 19.1z" fill="#FFFFFF" p-id="3864"></path><path d="M599.4 151.9c119.3 0 244.2 89.8 306.4 232.6 78.2 179.5 27.6 374.7-113 435.9C764.1 833 733.7 839 703 839c-119.3 0-244.2-89.9-306.4-232.6-78.2-179.5-27.6-374.7 113-435.9 28.8-12.6 59.2-18.6 89.8-18.6m0.1-15.2v15.2-15.2c-33.6 0-65.8 6.7-95.9 19.8-148 64.5-202.2 269-120.8 455.9C445.8 757 574.5 854.2 703 854.2c33.5 0 65.8-6.6 95.9-19.8 148-64.5 202.2-269 120.8-455.9-63-144.6-191.7-241.8-320.2-241.8z" fill="" p-id="3865"></path><path d="M906.3 640.3m-13.7 0a13.7 13.7 0 1 0 27.4 0 13.7 13.7 0 1 0-27.4 0Z" fill="" p-id="3866"></path><path d="M892.7 579.9m-13.7 0a13.7 13.7 0 1 0 27.4 0 13.7 13.7 0 1 0-27.4 0Z" fill="" p-id="3867"></path><path d="M892.7 408.1m-13.7 0a13.7 13.7 0 1 0 27.4 0 13.7 13.7 0 1 0-27.4 0Z" fill="" p-id="3868"></path><path d="M697.8 285.2m-13.7 0a13.7 13.7 0 1 0 27.4 0 13.7 13.7 0 1 0-27.4 0Z" fill="" p-id="3869"></path><path d="M786.3 298.9m-13.7 0a13.7 13.7 0 1 0 27.4 0 13.7 13.7 0 1 0-27.4 0Z" fill="" p-id="3870"></path><path d="M831.4 729.8m-13.7 0a13.7 13.7 0 1 0 27.4 0 13.7 13.7 0 1 0-27.4 0Z" fill="" p-id="3871"></path><path d="M633.3 681.3m-13.7 0a13.7 13.7 0 1 0 27.4 0 13.7 13.7 0 1 0-27.4 0Z" fill="" p-id="3872"></path><path d="M711.5 743.5m-13.7 0a13.7 13.7 0 1 0 27.4 0 13.7 13.7 0 1 0-27.4 0Z" fill="" p-id="3873"></path><path d="M619.7 770.8m-13.7 0a13.7 13.7 0 1 0 27.4 0 13.7 13.7 0 1 0-27.4 0Z" fill="" p-id="3874"></path><path d="M760.1 798.1m-13.7 0a13.7 13.7 0 1 0 27.4 0 13.7 13.7 0 1 0-27.4 0Z" fill="" p-id="3875"></path><path d="M439.9 444.5m-13.7 0a13.7 13.7 0 1 0 27.4 0 13.7 13.7 0 1 0-27.4 0Z" fill="" p-id="3876"></path><path d="M526.4 607.2m-13.7 0a13.7 13.7 0 1 0 27.4 0 13.7 13.7 0 1 0-27.4 0Z" fill="" p-id="3877"></path><path d="M512.7 271.5m-13.7 0a13.7 13.7 0 1 0 27.4 0 13.7 13.7 0 1 0-27.4 0Z" fill="" p-id="3878"></path><path d="M526.4 350.4m-13.7 0a13.7 13.7 0 1 0 27.4 0 13.7 13.7 0 1 0-27.4 0Z" fill="" p-id="3879"></path><path d="M406.5 298.9m-13.7 0a13.7 13.7 0 1 0 27.4 0 13.7 13.7 0 1 0-27.4 0Z" fill="" p-id="3880"></path><path d="M576.4 198.7m-13.7 0a13.7 13.7 0 1 0 27.4 0 13.7 13.7 0 1 0-27.4 0Z" fill="" p-id="3881"></path><path d="M835.9 653.9m-13.7 0a13.7 13.7 0 1 0 27.4 0 13.7 13.7 0 1 0-27.4 0Z" fill="" p-id="3882"></path><path d="M732.8 444.6m-53.5 0a53.5 53.5 0 1 0 107 0 53.5 53.5 0 1 0-107 0Z" fill="#8CC63F" p-id="3883"></path><path d="M732.9 505.6c-18.8 0-37.3-8.6-49.2-24.8-9.7-13.1-13.6-29.2-11.2-45.3 2.5-16.1 11-30.3 24.1-39.9 27.1-19.9 65.3-14.1 85.3 13 19.9 27.1 14.1 65.3-13 85.3-10.8 7.8-23.5 11.7-36 11.7z m-0.1-107c-9.5 0-19 2.9-27.2 8.9-9.9 7.3-16.4 18-18.2 30.1-1.8 12.2 1.1 24.3 8.4 34.2 15 20.4 43.9 24.8 64.3 9.8s24.8-43.9 9.8-64.3c-9-12.2-23-18.7-37.1-18.7z" fill="#FFFFFF" p-id="3884"></path><path d="M763.9 532.9m-53.5 0a53.5 53.5 0 1 0 107 0 53.5 53.5 0 1 0-107 0Z" fill="#8CC63F" p-id="3885"></path><path d="M764 593.9c-3.1 0-6.2-0.2-9.3-0.7-16.1-2.5-30.3-11-39.9-24.1-19.9-27.1-14.1-65.3 13-85.3 13.1-9.7 29.2-13.6 45.3-11.2 16.1 2.5 30.3 11 39.9 24.1 9.7 13.1 13.6 29.2 11.2 45.3-2.5 16.1-11 30.3-24.1 39.9-10.7 7.9-23.2 12-36.1 12z m-0.2-107c-9.7 0-19.2 3.1-27.2 9-20.4 15-24.8 43.9-9.8 64.3 7.3 9.9 18 16.4 30.1 18.2 12.2 1.9 24.3-1.1 34.2-8.4 9.9-7.3 16.4-18 18.2-30.1 1.9-12.2-1.1-24.3-8.4-34.2-7.3-9.9-18-16.4-30.1-18.2-2.4-0.4-4.7-0.6-7-0.6z" fill="#FFFFFF" p-id="3886"></path><path d="M641.7 423.1m-53.5 0a53.5 53.5 0 1 0 107 0 53.5 53.5 0 1 0-107 0Z" fill="#8CC63F" p-id="3887"></path><path d="M641.8 484.1c-3.1 0-6.2-0.2-9.3-0.7-16.1-2.5-30.3-11-39.9-24.2-9.7-13.1-13.6-29.2-11.2-45.3 2.5-16.1 11-30.3 24.1-39.9 13.1-9.7 29.2-13.6 45.3-11.2 16.1 2.5 30.3 11 39.9 24.1 19.9 27.1 14.1 65.3-13 85.3-10.5 7.8-23 11.9-35.9 11.9z m-0.2-107c-9.7 0-19.2 3.1-27.2 9-9.9 7.3-16.4 18-18.2 30.1-1.8 12.2 1.1 24.3 8.4 34.2 7.3 9.9 18 16.4 30.1 18.2 12.2 1.9 24.3-1.1 34.2-8.4 20.4-15 24.8-43.9 9.8-64.3-7.3-9.9-18-16.4-30.1-18.2-2.4-0.4-4.7-0.6-7-0.6z" fill="#FFFFFF" p-id="3888"></path><path d="M648.4 499.1m-53.5 0a53.5 53.5 0 1 0 107 0 53.5 53.5 0 1 0-107 0Z" fill="#8CC63F" p-id="3889"></path><path d="M648.6 560.1c-3.1 0-6.2-0.2-9.3-0.7-16.1-2.5-30.3-11-39.9-24.2-9.6-13.1-13.6-29.2-11.2-45.3 2.5-16.1 11-30.3 24.1-39.9 13.1-9.7 29.2-13.6 45.3-11.2 16.1 2.5 30.3 11 39.9 24.1 19.9 27.1 14.1 65.3-13 85.3-10.5 7.9-23 11.9-35.9 11.9z m-0.2-107c-9.7 0-19.2 3.1-27.2 9-9.9 7.3-16.4 18-18.2 30.1-1.9 12.2 1.1 24.3 8.4 34.2 7.3 9.9 18 16.4 30.1 18.2 12.2 1.8 24.3-1.1 34.2-8.4 20.4-15 24.8-43.9 9.8-64.3-7.3-9.9-18-16.4-30.1-18.2-2.4-0.4-4.7-0.6-7-0.6z" fill="#FFFFFF" p-id="3890"></path><path d="M697 565.2m-53.5 0a53.5 53.5 0 1 0 107 0 53.5 53.5 0 1 0-107 0Z" fill="#8CC63F" p-id="3891"></path><path d="M697.1 626.1c-3.1 0-6.2-0.2-9.3-0.7-16.1-2.5-30.3-11-39.9-24.2-9.7-13.1-13.6-29.2-11.2-45.3 2.5-16.1 11-30.3 24.1-39.9 27.1-19.9 65.3-14.1 85.3 13s14.1 65.3-13 85.3c-10.6 7.8-23.1 11.8-36 11.8z m-0.2-106.9c-9.5 0-19 2.9-27.2 8.9-9.9 7.3-16.4 18-18.2 30.1-1.8 12.2 1.1 24.3 8.4 34.2 7.3 9.9 18 16.4 30.1 18.2 12.2 1.8 24.3-1.1 34.2-8.4 20.4-15 24.8-43.9 9.8-64.3-8.9-12.2-22.9-18.7-37.1-18.7z" fill="#FFFFFF" p-id="3892"></path></svg>