<?xml version="1.0" standalone="no"?><!DOCTYPE svg PUBLIC "-//W3C//DTD SVG 1.1//EN" "http://www.w3.org/Graphics/SVG/1.1/DTD/svg11.dtd"><svg t="1747739592695" class="icon" viewBox="0 0 1024 1024" version="1.1" xmlns="http://www.w3.org/2000/svg" p-id="3257" xmlns:xlink="http://www.w3.org/1999/xlink" width="200" height="200"><path d="M189.1 597.7h631.3v73.6c0 62.8-51.4 114.3-114.3 114.3H303.4c-62.8 0-114.3-51.4-114.3-114.3v-73.6z" fill="#FFF4D4" p-id="3258"></path><path d="M295.4 309.7c141.4-21.6 280.9-22.1 418.8 0 137.9 22.1 209.4 128.6 209.4 201.7 0 49-40.1 89.1-89.2 89.1H175.2c-49 0-89.1-40.1-89.1-89.1-0.1-73.1 67.9-180.1 209.3-201.7z" fill="#EB6B3B" p-id="3259"></path><path d="M634.7 812.4c-14.7 0-26.7-12-26.7-26.8s12-26.8 26.7-26.8h78.7c48.3 0 87.5-39.3 87.5-87.5v-46.9h-161c-14.8 0-26.7-12-26.7-26.8s12-26.7 26.7-26.7h187.9c14.8 0 26.8 12 26.8 26.7v73.6c0 77.8-63.3 141-141 141l-78.9 0.2z m-246.8-0.1h-77.2c-77.7 0-141-63.2-141-141v-73.6c0-14.8 12-26.7 26.7-26.7h184c14.7 0 26.7 12 26.7 26.7 0 14.8-12 26.8-26.7 26.8H223.2v46.9c0 48.3 39.2 87.5 87.5 87.5h77.2c14.8 0 26.7 12 26.7 26.8 0 14.7-11.9 26.6-26.7 26.6z" fill="#231815" p-id="3260"></path><path d="M441.2 339c98.5-13.5 195.6-13.8 291.7 0 96 13.9 145.8 80.6 145.8 126.4 0 30.7-27.9 55.9-62.1 55.9H357.5c-34.2 0-62.1-25.1-62.1-55.9 0-45.8 47.4-112.9 145.8-126.4z" fill="#EF8A66" p-id="3261"></path><path d="M842 624.5c-14.8 0-26.7-12-26.7-26.8s12-26.7 26.7-26.7c34.4 0 62.4-28 62.4-62.4 0-58.6-59.4-154.9-186.9-175.3-31.7-5.1-50-7.7-81.3-10.4-14.7-1.2-25.6-14.2-24.4-28.9 1.2-14.7 14.1-25.7 28.9-24.4 33 2.8 52.2 5.6 85.2 10.9 143.3 22.9 231.9 136.3 231.9 228.1 0.1 63.9-51.9 115.9-115.8 115.9z m-659.3 0c-63.9 0-115.9-52-115.9-115.9 0-80 72-203.7 232.1-228.2 35.4-5.4 55.4-8.1 88-10.7 14.7-1.2 27.6 9.7 28.9 24.5 1.2 14.7-9.7 27.6-24.5 28.8-32.5 2.7-51.5 5.3-84.3 10.3C178.3 353 120.3 447.6 120.3 508.6c0 34.4 28 62.4 62.4 62.4 14.8 0 26.8 12 26.8 26.7 0 14.8-12 26.8-26.8 26.8z" fill="#231815" p-id="3262"></path><path d="M443.3 228.4h151.6c19.6 0 35.7 16.1 35.7 35.7V809c0 19.6-16.1 35.7-35.7 35.7H443.3c-19.6 0-35.6-16.1-35.6-35.7V264c0-19.6 16-35.6 35.6-35.6z" fill="#485157" p-id="3263"></path><path d="M513.6 258.2h57.2c19.6 0 35.7 16.1 35.7 35.7v225.7c0 19.6-16.1 35.7-35.7 35.7h-57.2c-19.6 0-35.6-16-35.6-35.7V293.9c0-19.6 16-35.7 35.6-35.7z" fill="#707F86" p-id="3264"></path><path d="M594.9 862.4H443.3c-29.5 0-53.5-24-53.5-53.5V264c0-29.5 24-53.5 53.5-53.5h151.6c29.5 0 53.5 24 53.5 53.5v544.9c-0.1 29.5-24 53.5-53.5 53.5zM443.3 246.2c-9.8 0-17.8 8-17.8 17.8v544.9c0 9.8 8 17.8 17.8 17.8h151.6c9.8 0 17.8-8 17.8-17.8V264c0-9.8-8-17.8-17.8-17.8H443.3zM337.4 615.5c-9.9 0-17.8-8-17.8-17.8V419.1c0-9.8 8-17.8 17.8-17.8s17.8 8 17.8 17.8v178.6c0 9.9-8 17.8-17.8 17.8zM211.2 440.6c-9.9 0-17.8-8-17.8-17.8v-58c0-9.9 8-17.8 17.8-17.8s17.8 8 17.8 17.8v58c0 9.8-8 17.8-17.8 17.8zM815.8 477c-9.8 0-17.8-8-17.8-17.8v-88.6c0-9.9 8-17.8 17.8-17.8 9.9 0 17.8 8 17.8 17.8v88.6c0 9.8-7.9 17.8-17.8 17.8z" fill="#231815" p-id="3265"></path><path d="M722.6 615.5c-9.8 0-17.8-8-17.8-17.8V306.8c0-9.9 8-17.8 17.8-17.8s17.8 8 17.8 17.8v290.9c0 9.9-7.9 17.8-17.8 17.8z" fill="#231815" p-id="3266"></path></svg>